<?xml version="1.0" encoding="UTF-8"?>
<svg xmlns="http://www.w3.org/2000/svg" xmlns:xlink="http://www.w3.org/1999/xlink" width="48pt" height="48pt" viewBox="0 0 48 48" version="1.1">
<g id="surface474957">
<path style=" stroke:none;fill-rule:nonzero;fill:rgb(42.352941%,38.823529%,100%);fill-opacity:1;" d="M 6 6 L 42 6 L 42 42 L 6 42 Z M 6 6 "/>
<path style=" stroke:none;fill-rule:nonzero;fill:rgb(100%,100%,100%);fill-opacity:1;" d="M 34.144531 16.230469 L 36 14.375 L 36 14 L 29.363281 14 L 24.445312 25.789062 L 19.261719 14 L 12 14 L 12 14.375 L 13.882812 16.636719 C 13.960938 16.726562 14 16.839844 14 16.957031 L 14 29.242188 C 14 29.425781 13.9375 29.601562 13.824219 29.742188 L 11.5 32.625 L 11.5 33 L 18.5 33 L 18.5 32.625 L 16.175781 29.71875 C 16.0625 29.578125 16 29.402344 16 29.21875 L 16 18.726562 L 22.363281 33 L 23.625 33 L 29 20.082031 L 29 30.167969 C 29 30.300781 28.945312 30.429688 28.855469 30.519531 L 26.75 32.625 L 26.75 33 L 36 33 L 36 32.625 L 34.144531 30.769531 C 34.054688 30.679688 34 30.550781 34 30.417969 L 34 16.582031 C 34 16.449219 34.054688 16.320312 34.144531 16.230469 Z M 34.144531 16.230469 "/>
</g>
</svg>
